Coordinates
version=1
nRows=10
nColumns=40
inDegrees=yes

Units are S.I. units (second, meters, Newtons, ...)
Angles are in degrees.

endheader
time	pelvis_tilt	pelvis_list	pelvis_rotation	pelvis_tx	pelvis_ty	pelvis_tz	hip_flexion_r	hip_adduction_r	hip_rotation_r	knee_angle_r	knee_angle_r_beta	ankle_angle_r	subtalar_angle_r	mtp_angle_r	hip_flexion_l	hip_adduction_l	hip_rotation_l	knee_angle_l	knee_angle_l_beta	ankle_angle_l	subtalar_angle_l	mtp_angle_l	lumbar_extension	lumbar_bending	lumbar_rotation	arm_flex_r	arm_add_r	arm_rot_r	elbow_flex_r	pro_sup_r	wrist_flex_r	wrist_dev_r	arm_flex_l	arm_add_l	arm_rot_l	elbow_flex_l	pro_sup_l	wrist_flex_l	wrist_dev_l
     52.13500000	     -7.07769539	     -0.78641690	     -1.44201853	      1.07855337	      0.92135004	      0.44640467	     32.73151813	     -5.58777564	    -11.62099233	     21.28209996	     21.28209996	      0.58699556	     -2.12323641	      6.23867902	      3.43426395	     -0.79496674	    -13.67980844	     10.89534575	     10.89534575	     16.28818633	      1.72877998	     -8.07636246	    -11.66486591	      0.58232763	     -0.25919876	    -22.76241215	    -14.14551501	     -7.75856680	     27.95108300	     46.93870736	      0.00000000	      0.00000000	     23.34386076	    -21.63708665	     -8.90374898	     86.18404431	     47.46176339	      0.00000000	      0.00000000
     52.14707143	     -7.03234040	     -0.52341650	     -1.36451540	      1.07985236	      0.91971451	      0.44834657	     31.91145573	     -5.43138648	    -11.99538426	     19.49021877	     19.49021877	      0.52790160	     -0.97506896	      6.81977403	      2.67641907	     -0.62619375	    -13.72368971	     10.70791485	     10.70791485	     16.72250140	      2.09859088	     -8.20101742	    -11.59264093	      0.31370469	     -0.23161545	    -23.32756811	    -13.99884089	     -7.82223964	     28.23443926	     46.91698688	      0.00000000	      0.00000000	     23.16256945	    -21.57679327	     -9.11649222	     87.32499607	     47.50558134	      0.00000000	      0.00000000
     52.15914286	     -6.99832480	     -0.31383499	     -1.28676426	      1.08113503	      0.91819968	      0.45041517	     31.29491910	     -5.28958333	    -12.22319089	     18.42136063	     18.42136063	      0.48943922	     -0.18056666	      7.09363686	      1.99384047	     -0.54386254	    -13.73234329	     10.64667035	     10.64667035	     17.18067966	      2.40919949	     -8.22679792	    -11.50841862	      0.07901868	     -0.21492211	    -23.67851252	    -13.86355673	     -7.85941636	     28.55151234	     46.89375628	      0.00000000	      0.00000000	     22.83807371	    -21.49628105	     -9.35170190	     88.36540665	     47.54846101	      0.00000000	      0.00000000
     52.17121429	     -6.97763136	     -0.17437398	     -1.20357257	      1.08240595	      0.91679425	      0.45262891	     30.86272104	     -5.14772009	    -12.36745387	     18.01394466	     18.01394466	      0.38864073	      0.16476938	      6.34872846	      1.46564410	     -0.61265901	    -13.93023428	     10.90053045	     10.90053045	     18.05999726	      3.09322397	     -7.42469796	    -11.47530726	     -0.03263510	     -0.76231860	    -23.65002219	    -13.96614742	     -7.66206352	     29.54276285	     46.79336277	      0.00000000	      0.00000000	     21.59388491	    -21.60186893	    -10.50569671	     90.39866854	     47.70645808	      0.00000000	      0.00000000
     52.18328571	     -7.01547421	     -0.14540125	     -1.12788939	      1.08355077	      0.91562182	      0.45499575	     30.63230160	     -4.93701374	    -12.32532799	     18.15573972	     18.15573972	      0.62985146	      0.08661523	      6.12778244	      0.98472019	     -0.76284683	    -13.79713815	     11.03285686	     11.03285686	     18.37336862	      3.06291812	     -7.45482739	    -11.33844343	     -0.01836912	     -0.61113620	    -23.45118235	    -13.81012754	     -7.58012754	     29.57065466	     46.78521785	      0.00000000	      0.00000000	     21.30539339	    -21.33119168	    -10.44686099	     90.44669136	     47.70502784	      0.00000000	      0.00000000
     52.19535714	     -7.01747162	     -0.21806123	     -1.07574870	      1.08467005	      0.91479594	      0.45748365	     30.43650475	     -4.67606280	    -12.26795556	     18.67103206	     18.67103206	      0.98652051	     -0.21951793	      5.67143301	      0.51302894	     -1.04233284	    -13.65796674	     11.25397235	     11.25397235	     18.67316246	      2.97917889	     -7.38916017	    -11.27309743	      0.12761090	     -0.38946322	    -23.04000122	    -13.69857850	     -7.47735478	     29.61826137	     46.77646513	      0.00000000	      0.00000000	     20.92975681	    -20.97447510	    -10.38772160	     90.52664230	     47.70405419	      0.00000000	      0.00000000
     52.20742857	     -7.07503627	     -0.30094648	     -0.97583742	      1.08563755	      0.91410564	      0.46018530	     30.29840261	     -4.31517284	    -11.62120172	     19.21524306	     19.21524306	      0.22020425	     -1.91078980	      1.92241576	      0.48261463	     -1.48818843	    -13.74703324	     12.29112181	     12.29112181	     19.97227995	      3.35928957	     -5.25074282	    -11.21344326	      0.22094944	     -0.82102574	    -21.58443792	    -13.81921232	     -6.15035073	     28.45852542	     46.70252279	      0.00000000	      0.00000000	     19.75740618	    -20.78777556	    -11.49810434	     91.53524867	     47.84268686	      0.00000000	      0.00000000
     52.21950000	     -7.12293526	     -0.41294189	     -0.85213593	      1.08656622	      0.91376716	      0.46280993	     30.27664998	     -4.09989570	    -11.39550433	     20.21567626	     20.21567626	      0.55767596	     -2.77088889	      0.61672539	      0.37233656	     -1.92923362	    -13.69216254	     13.08325614	     13.08325614	     20.47124897	      3.40358371	     -4.59473476	    -11.13235950	      0.39245978	     -0.85548597	    -20.50134801	    -13.90146396	     -5.05006003	     28.06726109	     46.61325769	      0.00000000	      0.00000000	     19.03333249	    -20.38701550	    -11.64289846	     91.34698420	     47.89506672	      0.00000000	      0.00000000
     52.23157143	     -7.05848669	     -0.62620684	     -0.76867002	      1.08755866	      0.91407006	      0.46550777	     29.99520580	     -3.79729695	    -11.32779529	     21.05942488	     21.05942488	      1.24812129	     -3.14110318	      0.21739333	      0.01933471	     -2.41932667	    -13.51189235	     13.58852114	     13.58852114	     20.43753605	      3.13570183	     -4.57102782	    -11.23716866	      0.70092922	     -0.55927605	    -19.49462617	    -13.72789421	     -4.96419378	     28.37638391	     46.60119098	      0.00000000	      0.00000000	     18.34656812	    -19.81446093	    -11.38516354	     91.06286917	     47.87121364	      0.00000000	      0.00000000
     52.24364286	     -7.24020996	     -0.84035695	     -0.53126903	      1.08797043	      0.91401996	      0.46828500	     30.14486965	     -3.46369354	    -10.94034602	     22.14922490	     22.14922490	      1.85882718	     -4.64164343	     -0.00457523	      0.64758686	     -3.09768336	    -13.12391948	     15.36860676	     15.36860676	     20.69658688	      2.36031601	     -4.36697178	    -11.07745479	      0.99329680	     -0.76021891	    -18.03279925	    -13.82307970	     -4.37648925	     28.02498342	     46.57411360	      0.00000000	      0.00000000	     17.52353881	    -19.56340963	    -11.61631602	     90.29097906	     47.88737751	      0.00000000	      0.00000000
